<?xml version="1.0" encoding="UTF-8"?>
<svg width="300px" height="46px" viewBox="0 0 300 46" version="1.1" xmlns="http://www.w3.org/2000/svg" xmlns:xlink="http://www.w3.org/1999/xlink">
    <!-- Generator: Sketch 45.2 (43514) - http://www.bohemiancoding.com/sketch -->
    <title>Logo SICID</title>
    <desc>Created with Sketch.</desc>
    <defs/>
    <g id="Prop-4" stroke="none" stroke-width="1" fill="none" fill-rule="evenodd">
        <g id="Navbar-3" transform="translate(-47.000000, -21.000000)">
            <g id="Logo-SICID" transform="translate(47.000000, 21.000000)">
                <g id="Group">
                    <path d="M15.7328574,9.34299316 C14.8885321,8.46466838 14.1230679,7.80965983 13.4368574,7.37796752 C12.7506469,6.94627521 11.7591923,6.73042906 10.4628861,6.73042906 C9.04534545,6.73042906 7.89499139,7.05164274 7.01300096,7.69328376 C6.13101053,8.33492479 5.69001531,9.1617453 5.69001531,10.1733521 C5.69001531,11.0493179 6.07529761,11.8230615 6.8458622,12.4949761 C7.61564211,13.1668906 8.92881914,13.9024974 10.7842163,14.7010103 C12.6396134,15.4995231 14.0838335,16.2433863 15.1176612,16.9322068 C16.1507043,17.6206342 16.9997378,18.3814034 17.6631923,19.213335 C18.3270392,20.0456598 18.821001,20.9231983 19.1454699,21.8463436 C19.4699388,22.7694889 19.6323694,23.7457111 19.6323694,24.7746171 C19.6323694,27.1807709 18.7594029,29.231506 17.0138622,30.9264291 C15.2679292,32.620959 13.1559388,33.4686171 10.6774986,33.4686171 C8.25947943,33.4686171 6.12434067,32.8057453 4.27325933,31.480788 C2.42178565,30.1558308 0.99757512,28.1680017 -0.000156937798,25.517694 L3.94447464,24.4046513 C5.38006316,27.6608222 7.57915407,29.2885145 10.5417474,29.2885145 C11.9773359,29.2885145 13.1712402,28.8583949 14.1230679,27.9977624 C15.075288,27.1371299 15.5515943,26.0496427 15.5515943,24.7364803 C15.5515943,23.951335 15.3016708,23.1626513 14.8026086,22.3692496 C14.3031541,21.5770274 13.6828574,20.9235915 12.942111,20.4105145 C12.2005799,19.8974376 11.0215847,19.3080872 9.40473301,18.6436427 C7.78709665,17.9791983 6.54297225,17.3701897 5.67079043,16.8181897 C4.79860861,16.2657966 4.0437378,15.6072496 3.40696268,14.8429419 C2.76979522,14.0790274 2.30368995,13.3186513 2.0078622,12.5618137 C1.71203445,11.8049761 1.56412057,10.9954547 1.56412057,10.1328564 C1.56412057,8.05971111 2.39510622,6.29283932 4.0578622,4.83224103 C5.72022584,3.3720359 7.73805359,2.64154017 10.1105608,2.64154017 C11.6822928,2.64154017 13.2767809,2.98241197 14.8940249,3.66376239 C16.5108766,4.34511282 17.8562258,5.38306154 18.929288,6.7760359 L15.7328574,9.34299316 Z" id="Fill-1" fill="#434041"/>
                    <path d="M24.5058373,32.4917265 L28.4049569,32.4917265 L28.4049569,13.7500684 L24.5058373,13.7500684 L24.5058373,32.4917265 Z M23.39511,7.59393162 C23.39511,6.77615385 23.6972153,6.06806838 24.3018182,5.46967521 C24.9064211,4.87167521 25.6244115,4.57247863 26.4557895,4.57247863 C27.271866,4.57247863 27.9780861,4.87167521 28.5752344,5.46967521 C29.1723828,6.06806838 29.4709569,6.77615385 29.4709569,7.59393162 C29.4709569,8.42664957 29.1723828,9.13866667 28.5752344,9.72919658 C27.9780861,10.3197265 27.271866,10.6149915 26.4557895,10.6149915 C25.6244115,10.6149915 24.9064211,10.3197265 24.3018182,9.72919658 C23.6972153,9.13866667 23.39511,8.42664957 23.39511,7.59393162 L23.39511,7.59393162 Z" id="Fill-4" fill="#002B85"/>
                    <path d="M48.3319378,26.7670462 L48.3319378,31.2876274 C46.3219569,32.4388068 44.3723971,33.0143966 42.4832584,33.0143966 C39.8988852,33.0143966 37.6354498,32.0413197 35.6937368,30.0951658 C33.7512392,28.1494051 32.7805789,25.8961915 32.7805789,23.3367043 C32.7805789,20.4288752 33.7477081,18.0176103 35.6823589,16.1013368 C37.6166172,14.1858496 40.0424833,13.2277128 42.9591722,13.2277128 C44.696866,13.2277128 46.4879187,13.6818154 48.3319378,14.5908068 L48.3319378,18.9977641 C46.3521675,17.7254906 44.4783301,17.089747 42.7100335,17.089747 C41.0778804,17.089747 39.6497464,17.6653368 38.4252392,18.8161231 C37.2011244,19.9673026 36.589067,21.3150632 36.589067,22.8597983 C36.589067,24.6015077 37.1634593,26.0668239 38.3118517,27.2553538 C39.460244,28.4446701 40.8660144,29.0387385 42.528378,29.0387385 C44.2209522,29.0387385 46.1556029,28.2819009 48.3319378,26.7670462" id="Fill-6" fill="#DF050B"/>
                    <path d="M52.5486603,32.4917265 L56.4477799,32.4917265 L56.4477799,13.7500684 L52.5486603,13.7500684 L52.5486603,32.4917265 Z M51.437933,7.59393162 C51.437933,6.77615385 51.7400383,6.06806838 52.3446411,5.46967521 C52.9488517,4.87167521 53.6668421,4.57247863 54.4982201,4.57247863 C55.3142967,4.57247863 56.0205167,4.87167521 56.6176651,5.46967521 C57.2148134,6.06806838 57.5133876,6.77615385 57.5133876,7.59393162 C57.5133876,8.42664957 57.2148134,9.13866667 56.6176651,9.72919658 C56.0205167,10.3197265 55.3142967,10.6149915 54.4982201,10.6149915 C53.6668421,10.6149915 52.9488517,10.3197265 52.3446411,9.72919658 C51.7400383,9.13866667 51.437933,8.42664957 51.437933,7.59393162 L51.437933,7.59393162 Z" id="Fill-7" fill="#002B85"/>
                    <path d="M78.4825139,23.0869282 C78.4825139,21.406159 77.8696718,19.9483128 76.6428105,18.7137829 C75.416734,17.4796462 73.9552507,16.8623812 72.2603225,16.8623812 C70.5037962,16.8623812 69.0164182,17.4643128 67.7974038,18.6685692 C66.5779971,19.8724325 65.9686861,21.345612 65.9686861,23.0869282 C65.9686861,24.7527573 66.5897675,26.2102103 67.8311455,27.4600735 C69.0725234,28.7095436 70.5183129,29.3342786 72.1689062,29.3342786 C73.9254325,29.3342786 75.416734,28.7288085 76.6428105,27.5166889 C77.8696718,26.3053556 78.4825139,24.8286376 78.4825139,23.0869282 L78.4825139,23.0869282 Z M78.0297483,3.00497949 L81.9284756,3.00497949 L81.9284756,32.4917658 L78.0748679,32.4917658 L78.0748679,28.5841248 C76.212801,31.5375607 73.776734,33.0142786 70.7650976,33.0142786 C68.3282459,33.0142786 66.2394038,32.0376632 64.4989636,30.0836462 C62.7585234,28.1300222 61.8886957,25.7824496 61.8886957,23.0417145 C61.8886957,20.3607402 62.7738249,18.0552359 64.5444756,16.1240222 C66.3151263,14.1932017 68.4263321,13.2275949 70.8784852,13.2275949 C72.3466383,13.2275949 73.7163129,13.6364838 74.9875091,14.4542615 C76.2587053,15.2724325 77.2725234,16.3398684 78.0297483,17.6573556 L78.0297483,3.00497949 Z" id="Fill-8" fill="#434041"/>
                    <path d="M29.1504507,7.44114872 C29.1504507,9.09557607 27.8121636,10.436653 26.161178,10.436653 C24.5101923,10.436653 23.1719053,9.09557607 23.1719053,7.44114872 C23.1719053,5.78672137 24.5101923,4.44564444 26.161178,4.44564444 C27.8121636,4.44564444 29.1504507,5.78672137 29.1504507,7.44114872" id="Fill-9" fill="#002B85"/>
                    <path d="M43.2817187,2.99566154 C43.2817187,4.65008889 41.9434316,5.99116581 40.2924459,5.99116581 C38.6414603,5.99116581 37.3031732,4.65008889 37.3031732,2.99566154 C37.3031732,1.34123419 38.6414603,0.000157264957 40.2924459,0.000157264957 C41.9434316,0.000157264957 43.2817187,1.34123419 43.2817187,2.99566154" id="Fill-10" fill="#002B85"/>
                    <path d="M57.4129474,7.44114872 C57.4129474,9.09557607 56.0746603,10.436653 54.4236746,10.436653 C52.772689,10.436653 51.4344019,9.09557607 51.4344019,7.44114872 C51.4344019,5.78672137 52.772689,4.44564444 54.4236746,4.44564444 C56.0746603,4.44564444 57.4129474,5.78672137 57.4129474,7.44114872" id="Fill-11" fill="#002B85"/>
                    <path d="M29.1504507,7.44114872 C29.1504507,9.09557607 27.8121636,10.436653 26.161178,10.436653 C24.5101923,10.436653 23.1719053,9.09557607 23.1719053,7.44114872 C23.1719053,5.78672137 24.5101923,4.44564444 26.161178,4.44564444 C27.8121636,4.44564444 29.1504507,5.78672137 29.1504507,7.44114872" id="Fill-12" fill="#002B85"/>
                    <path d="M43.2817187,2.99566154 C43.2817187,4.65008889 41.9434316,5.99116581 40.2924459,5.99116581 C38.6414603,5.99116581 37.3031732,4.65008889 37.3031732,2.99566154 C37.3031732,1.34123419 38.6414603,0.000157264957 40.2924459,0.000157264957 C41.9434316,0.000157264957 43.2817187,1.34123419 43.2817187,2.99566154" id="Fill-13" fill="#DF050B"/>
                    <path d="M57.4129474,7.44114872 C57.4129474,9.09557607 56.0746603,10.436653 54.4236746,10.436653 C52.772689,10.436653 51.4344019,9.09557607 51.4344019,7.44114872 C51.4344019,5.78672137 52.772689,4.44564444 54.4236746,4.44564444 C56.0746603,4.44564444 57.4129474,5.78672137 57.4129474,7.44114872" id="Fill-14" fill="#002B85"/>
                    <path d="M50.8897885,38.3509863 C50.8897885,36.696559 52.2280756,35.3554821 53.8790612,35.3554821 C55.5300469,35.3554821 56.868334,36.696559 56.868334,38.3509863 C56.868334,40.0054137 55.5300469,41.3464906 53.8790612,41.3464906 C52.2280756,41.3464906 50.8897885,40.0054137 50.8897885,38.3509863" id="Fill-15" fill="#002B85"/>
                    <path d="M36.7585206,42.7964735 C36.7585206,41.1420462 38.0968077,39.8009692 39.7477933,39.8009692 C41.3987789,39.8009692 42.737066,41.1420462 42.737066,42.7964735 C42.737066,44.4509009 41.3987789,45.7919778 39.7477933,45.7919778 C38.0968077,45.7919778 36.7585206,44.4509009 36.7585206,42.7964735" id="Fill-16" fill="#DF050B"/>
                    <path d="M22.6272919,38.3509863 C22.6272919,36.696559 23.9655789,35.3554821 25.6165646,35.3554821 C27.2675502,35.3554821 28.6058373,36.696559 28.6058373,38.3509863 C28.6058373,40.0054137 27.2675502,41.3464906 25.6165646,41.3464906 C23.9655789,41.3464906 22.6272919,40.0054137 22.6272919,38.3509863" id="Fill-17" fill="#002B85"/>
                </g>
                <text id="Sistema-Costarricens" font-family="Helvetica" font-size="14" font-weight="normal" fill="#353535">
                    <tspan x="101" y="20">Sistema Costarricense de</tspan>
                    <tspan x="101" y="37">Información sobre Discapacidad</tspan>
                </text>
            </g>
        </g>
    </g>
</svg>