<svg xmlns="http://www.w3.org/2000/svg" width="26.782" height="21.752" viewBox="0 0 26.782 21.752"><defs><style>.a{fill:#fff;}</style></defs><path class="a" d="M24.029,53.5c.017.238.017.476.017.714A15.51,15.51,0,0,1,8.429,69.834,15.511,15.511,0,0,1,0,67.37a11.357,11.357,0,0,0,1.326.068A10.993,10.993,0,0,0,8.14,65.093a5.5,5.5,0,0,1-5.132-3.807,6.923,6.923,0,0,0,1.037.085,5.805,5.805,0,0,0,1.444-.187,5.49,5.49,0,0,1-4.4-5.387v-.068a5.528,5.528,0,0,0,2.481.7,5.5,5.5,0,0,1-1.7-7.341,15.6,15.6,0,0,0,11.318,5.744,6.2,6.2,0,0,1-.136-1.258,5.494,5.494,0,0,1,9.5-3.756,10.807,10.807,0,0,0,3.484-1.326,5.474,5.474,0,0,1-2.413,3.025,11,11,0,0,0,3.161-.85A11.8,11.8,0,0,1,24.029,53.5Z" transform="translate(0 -48.082)"/></svg>